<svg xmlns="http://www.w3.org/2000/svg" viewBox="0 0 64 64" fill="none">
  <defs>
    <linearGradient id="blushPetal" x1="32" y1="8" x2="32" y2="52" gradientUnits="userSpaceOnUse">
      <stop offset="0%" stop-color="#FCEEF1"/>
      <stop offset="50%" stop-color="#F6CAD4"/>
      <stop offset="100%" stop-color="#EAA6B5"/>
    </linearGradient>
    <linearGradient id="sidePetalLeft" x1="12" y1="20" x2="34" y2="52" gradientUnits="userSpaceOnUse">
      <stop offset="0%" stop-color="#FFF8F4"/>
      <stop offset="60%" stop-color="#F3C3CE"/>
      <stop offset="100%" stop-color="#DF93A4"/>
    </linearGradient>
    <linearGradient id="sidePetalRight" x1="52" y1="20" x2="30" y2="52" gradientUnits="userSpaceOnUse">
      <stop offset="0%" stop-color="#FFF8F4"/>
      <stop offset="60%" stop-color="#F3C3CE"/>
      <stop offset="100%" stop-color="#DF93A4"/>
    </linearGradient>
    <linearGradient id="outerPetalLeft" x1="4" y1="30" x2="32" y2="54" gradientUnits="userSpaceOnUse">
      <stop offset="0%" stop-color="#FFFDF8"/>
      <stop offset="65%" stop-color="#EDBAC5"/>
      <stop offset="100%" stop-color="#D78698"/>
    </linearGradient>
    <linearGradient id="outerPetalRight" x1="60" y1="30" x2="32" y2="54" gradientUnits="userSpaceOnUse">
      <stop offset="0%" stop-color="#FFFDF8"/>
      <stop offset="65%" stop-color="#EDBAC5"/>
      <stop offset="100%" stop-color="#D78698"/>
    </linearGradient>
  </defs>
  
  <!-- Outer Side Petals -->
  <path d="M32 50 C20 49 8 43 4 33 C6 27 15 28 24 35 C28 38 31 44 32 50 Z" fill="url(#outerPetalLeft)" stroke="#C69255" stroke-width="1.2" stroke-linejoin="round"/>
  <path d="M32 50 C44 49 56 43 60 33 C58 27 49 28 40 35 C36 38 33 44 32 50 Z" fill="url(#outerPetalRight)" stroke="#C69255" stroke-width="1.2" stroke-linejoin="round"/>
  
  <!-- Mid Petals -->
  <path d="M32 51 C22 47 14 36 15 24 C20 20 28 25 31 35 C32 38 32 46 32 51 Z" fill="url(#sidePetalLeft)" stroke="#C69255" stroke-width="1.2" stroke-linejoin="round"/>
  <path d="M32 51 C42 47 50 36 49 24 C44 20 36 25 33 35 C32 38 32 46 32 51 Z" fill="url(#sidePetalRight)" stroke="#C69255" stroke-width="1.2" stroke-linejoin="round"/>
  
  <!-- Center Main Petal -->
  <path d="M32 9 C27 20 24 34 32 52 C40 34 37 20 32 9 Z" fill="url(#blushPetal)" stroke="#B88242" stroke-width="1.3" stroke-linejoin="round"/>
  
  <!-- Small Center Golden Bud Accent -->
  <circle cx="32" cy="46" r="2.2" fill="#D4A15A"/>
  <circle cx="32" cy="46" r="1.1" fill="#FFFDF8"/>
</svg>
